HIERARCHY
ROOT root
{
	OFFSET	0	13.1	24.9
	CHANNELS 6  Xposition Yposition Zposition Xrotation Yrotation Zrotation
	JOINT spine_1
	{
		OFFSET	0	9.99999	0
		CHANNELS 3  Xrotation Yrotation Zrotation
		JOINT spine_2
		{
			OFFSET	0	112	-10
			CHANNELS 3  Xrotation Yrotation Zrotation
			JOINT spine_3
			{
				OFFSET	0	206.5	19.3
				CHANNELS 3  Xrotation Yrotation Zrotation
				JOINT spine_4
				{
					OFFSET	0	110.4	14.6
					CHANNELS 3  Xrotation Yrotation Zrotation
					JOINT neck_1
					{
						OFFSET	0	71.8	-50.3
						CHANNELS 3  Xrotation Yrotation Zrotation
						JOINT neck_2
						{
							OFFSET	0	86.2	-25.8
							CHANNELS 3  Xrotation Yrotation Zrotation
							JOINT head_ee
							{
								OFFSET	0	179.8	-8.7
								CHANNELS 3  Xrotation Yrotation Zrotation
								End Site
								{
									OFFSET	1	0	0
								}
							}
						}
					}
					JOINT left_clavicle
					{
						OFFSET	-43.2	22.4	-70.8
						CHANNELS 3  Xrotation Yrotation Zrotation
						JOINT left_shoulder
						{
							OFFSET	-93.9	-5.79999	48.7
							CHANNELS 3  Xrotation Yrotation Zrotation
							JOINT left_elbow
							{
								OFFSET	-291.4	-30.8	15.2
								CHANNELS 3  Xrotation Yrotation Zrotation
								JOINT left_lowarm_twist
								{
									OFFSET	-110.7	-3.89999	13.6
									CHANNELS 3  Xrotation Yrotation Zrotation
									JOINT left_hand
									{
										OFFSET	-110.7	-3.89999	13.6
										CHANNELS 3  Xrotation Yrotation Zrotation
										JOINT left_ee
										{
											OFFSET	-80.8	-5.10001	12.1
											CHANNELS 3  Xrotation Yrotation Zrotation
											End Site
											{
												OFFSET	1	0	0
											}
										}
									}
								}
							}
						}
					}
					JOINT right_clavicle
					{
						OFFSET	43.2	22.4	-70.8
						CHANNELS 3  Xrotation Yrotation Zrotation
						JOINT right_shoulder
						{
							OFFSET	93.9	-5.79999	48.7
							CHANNELS 3  Xrotation Yrotation Zrotation
							JOINT right_elbow
							{
								OFFSET	291.4	-30.8	15.2
								CHANNELS 3  Xrotation Yrotation Zrotation
								JOINT right_lowarm_twist
								{
									OFFSET	110.7	-3.89999	13.6
									CHANNELS 3  Xrotation Yrotation Zrotation
									JOINT right_hand
									{
										OFFSET	110.7	-3.89999	13.6
										CHANNELS 3  Xrotation Yrotation Zrotation
										JOINT right_ee
										{
											OFFSET	80.8	-5.10001	12.1
											CHANNELS 3  Xrotation Yrotation Zrotation
											End Site
											{
												OFFSET	1	0	0
											}
										}
									}
								}
							}
						}
					}
				}
			}
		}
	}
	JOINT left_hip
	{
		OFFSET	-82.8	-127.5	0.300001
		CHANNELS 3  Xrotation Yrotation Zrotation
		JOINT left_knee
		{
			OFFSET	-28.2	-396.7	2.2
			CHANNELS 3  Xrotation Yrotation Zrotation
			JOINT left_ankle
			{
				OFFSET	-11.7	-411.3	35.4
				CHANNELS 3  Xrotation Yrotation Zrotation
				JOINT left_toes
				{
					OFFSET	0	-60	-88.6
					CHANNELS 3  Xrotation Yrotation Zrotation
					JOINT left_foot_ee
					{
						OFFSET	-22.5	-16.5	-42.2
						CHANNELS 3  Xrotation Yrotation Zrotation
						End Site
						{
							OFFSET	1	0	0
						}
					}
				}
			}
		}
	}
	JOINT right_hip
	{
		OFFSET	82.8	-127.5	0.300001
		CHANNELS 3  Xrotation Yrotation Zrotation
		JOINT right_knee
		{
			OFFSET	28.2	-396.7	2.2
			CHANNELS 3  Xrotation Yrotation Zrotation
			JOINT right_ankle
			{
				OFFSET	11.7	-411.3	35.4
				CHANNELS 3  Xrotation Yrotation Zrotation
				JOINT right_toes
				{
					OFFSET	0	-60	-88.6
					CHANNELS 3  Xrotation Yrotation Zrotation
					JOINT right_foot_ee
					{
						OFFSET	22.5	-16.5	-42.2
						CHANNELS 3  Xrotation Yrotation Zrotation
						End Site
						{
							OFFSET	1	0	0
						}
					}
				}
			}
		}
	}
}
MOTION
Frames: 9
Frame Time: 0.02
1168.00490696 738.353 -1692.85085926 -8.56339009835 42.5569255977 1.47537235878 1.06977 0.453072 1.84541 1.07161 0.334747 1.87049 1.08309 -0.0299021 1.89996 1.07816 0.270482 1.88085 -2.54903 5.74851 -6.57319 -2.25808 15.5654 -6.11966 -0.0 0.0 -0.0 9.2402 9.81924 17.4635 -38.214 -42.7781 54.1452 0.274706 -7.74946 0.0186058 15.8825 0.283673 -2.00254 -0.141046 1.98994 -0.100053 -0.0 0.0 -0.0 8.53307 -2.68673 -16.5734 -8.896 73.2452 -54.1428 0.252288 7.12384 -0.0157043 46.8648 0.753614 5.77458 -1.07051 -4.91565 4.98079 0.0 0.0 0.0 31.8496 -6.9464 6.00114 -54.2825 -1.61524 7.86617 -24.1586 16.762 3.67061 -40.1824 0.0 0.0 -0.0 0.0 -0.0 19.5046 14.7966 0.424827 -14.015 -0.318915 -2.12178 10.3582 -6.6964 1.47079 4.32113 -0.0 -0.0 0.0 0.0 0.0 
1148.76643852 737.494 -1698.41912225 -7.13278264608 42.3359697448 0.34722717112 0.757347 0.469333 1.84299 0.759168 0.351128 1.8691 0.77136 -0.0239006 1.90164 0.76642 0.276674 1.88156 -2.51878 5.73827 -6.74874 -2.21642 15.6849 -6.31194 -0.0 0.0 -0.0 9.13558 10.8879 17.1713 -40.2958 -42.5531 54.5316 0.281885 -7.94941 0.0195863 16.1038 0.283677 -2.0308 0.131547 1.6265 1.55853 -0.0 0.0 -0.0 8.04215 -0.504762 -15.6621 -9.6458 73.6146 -51.7543 0.308179 8.6801 -0.0233888 46.47 0.727842 5.73111 -1.60174 -4.95194 8.47884 0.0 0.0 0.0 34.6045 -6.97819 6.31614 -54.8439 -1.66969 7.93342 -23.7127 16.2339 3.59829 -40.1945 0.0 0.0 -0.0 0.0 -0.0 16.5476 16.8401 0.981038 -13.315 -0.315374 -2.01445 12.9981 -6.56414 1.82794 4.66352 -0.0 -0.0 0.0 0.0 0.0 
1131.74270924 735.432 -1707.46706437 -5.47619633886 44.1087249282 -1.07401396843 0.5552 0.676395 1.88377 0.557003 0.555178 1.92298 0.576662 0.15888 1.99517 0.571417 0.471927 1.94507 -2.63986 6.42578 -7.10518 -2.29372 17.2037 -6.58105 -0.0 0.0 -0.0 9.51234 11.8191 17.7604 -42.5479 -41.471 53.3173 0.286242 -8.07068 0.0201934 16.2899 0.283597 -2.05457 -0.221455 3.91158 0.178642 -0.0 0.0 -0.0 7.80106 0.162051 -15.1902 -7.12773 74.0019 -53.1813 0.365012 10.2495 -0.0327354 45.8632 0.688823 5.66397 -1.16764 -2.52531 6.69306 0.0 0.0 0.0 36.4406 -6.19882 5.66304 -53.4709 -1.53771 7.76804 -24.0139 14.4565 3.63073 -40.1814 0.0 0.0 -0.0 0.0 -0.0 15.1113 17.435 0.922978 -15.3234 -0.322017 -2.3225 10.9627 -6.86634 1.55321 4.74642 -0.0 -0.0 0.0 0.0 0.0 
1111.1046924 727.722 -1711.45168045 -5.04697536222 46.0643494078 -1.18548709592 0.531552 0.754951 1.83021 0.53319 0.636982 1.87452 0.555075 0.248038 1.96416 0.550121 0.555072 1.90038 -2.71219 6.33209 -5.85415 -2.44874 16.0575 -5.256 -0.0 0.0 -0.0 9.38771 12.2947 17.4836 -43.044 -41.4196 54.1431 0.301221 -8.48702 0.0223503 16.8988 0.282794 -2.13234 0.109384 5.05711 2.83385 -0.0 0.0 -0.0 8.04507 7.90363 -15.6634 -2.83699 70.9273 -54.2247 0.3368 9.47222 -0.0279038 47.4831 0.794577 5.8423 -1.34836 -1.06161 8.56311 0.0 0.0 0.0 38.734 -4.87154 5.06821 -51.8316 -1.3854 7.56657 -23.9158 15.7961 3.62554 -40.1833 0.0 0.0 -0.0 0.0 -0.0 13.1268 16.4501 1.3442 -16.4658 -0.320976 -2.49777 16.5863 -4.2802 2.30231 4.03019 -0.0 -0.0 0.0 0.0 0.0 
1088.30495476 724.036 -1713.79745115 -4.35558276291 47.5551198888 -1.53212544373 0.636442 0.406148 1.58828 0.637794 0.304272 1.61089 0.646948 -0.0225531 1.63922 0.643276 0.236579 1.62222 -3.59971 5.1353 -5.02912 -3.43476 13.2359 -4.43306 -0.0 0.0 -0.0 8.33515 15.3283 15.3334 -41.8852 -42.156 56.1035 0.369818 -10.3815 0.033596 17.0649 0.282432 -2.15354 0.740603 5.09362 7.00961 -0.0 0.0 -0.0 7.71287 12.7932 -14.7882 -3.67345 68.1562 -51.7989 0.320769 9.02898 -0.0253268 47.4922 0.795181 5.84329 -1.43986 5.1063 11.9549 0.0 0.0 0.0 39.3201 -3.38282 4.58346 -50.761 -1.28909 7.4327 -22.4866 19.0301 3.43834 -40.1663 0.0 0.0 -0.0 0.0 -0.0 11.6446 11.3613 2.59633 -16.5599 -0.320735 -2.51221 21.7774 -3.46521 2.95406 3.42806 -0.0 -0.0 0.0 0.0 0.0 
1064.50529675 722.531 -1733.53286191 -4.2876048671 48.4511095594 -2.67416202064 0.62705 0.378428 1.80856 0.628831 0.262598 1.82897 0.637935 -0.107133 1.84461 0.633235 0.185483 1.83839 -6.42029 4.46842 -2.9589 -6.37928 10.4362 -2.11189 -0.0 0.0 -0.0 8.06276 18.1865 14.594 -45.0294 -40.6597 53.6018 0.600559 -16.5678 0.0874408 16.8692 0.282853 -2.12855 1.52071 6.07055 12.5833 -0.0 0.0 -0.0 7.87564 18.5452 -14.8035 -3.82757 62.9606 -50.1105 0.33039 9.29512 -0.0268587 46.3711 0.721436 5.7202 -1.21088 12.9683 13.7907 0.0 0.0 0.0 39.4202 -5.75481 5.24756 -45.2789 -0.836294 6.72091 -11.0396 21.2579 1.68842 -36.6953 0.0 0.0 -0.0 0.0 -0.0 9.89681 10.3662 4.16733 -17.463 -0.317212 -2.65073 25.3843 -3.21933 3.38103 3.14026 -0.0 -0.0 0.0 0.0 0.0 
1052.83807791 718.824 -1738.89283258 -3.48477299194 48.4048454021 -3.3865820163 0.638724 0.315548 1.75918 0.640423 0.202985 1.77569 0.647354 -0.154666 1.78055 0.642953 0.128433 1.78263 -7.7714 4.09832 -2.28854 -7.75829 9.26536 -1.3958 -0.0 0.0 -0.0 8.52295 19.7563 15.1457 -45.4906 -40.3203 52.8378 0.560282 -15.512 0.0763115 15.3497 0.283213 -1.93449 1.63035 7.57539 13.8816 -0.0 0.0 -0.0 7.18291 19.5782 -13.2111 -3.91344 63.4157 -49.5639 0.367089 10.3065 -0.033106 44.7524 0.619249 5.54 -1.28796 18.5347 16.6468 0.0 0.0 0.0 39.1167 -5.9803 5.04965 -41.5982 -0.571563 6.22055 -8.32988 22.024 1.27339 -37.197 0.0 0.0 -0.0 0.0 -0.0 8.98499 10.2005 4.58302 -18.3481 -0.31164 -2.78642 27.2645 -3.56656 3.59314 3.35029 -0.0 -0.0 0.0 0.0 0.0 
1040.05998191 716.774 -1745.78716307 -2.83310291958 49.0582570875 -3.60112843243 0.685498 0.299356 1.57778 0.686861 0.198364 1.59363 0.692886 -0.121659 1.60131 0.689332 0.132731 1.60043 -8.47621 3.81894 -1.95015 -8.47308 8.50622 -1.06591 -0.0 0.0 -0.0 8.22531 20.5238 14.5877 -45.3846 -40.2924 52.5755 0.572279 -15.8277 0.0795519 15.8536 0.283664 -1.99884 1.50018 5.50852 12.2321 -0.0 0.0 -0.0 6.95599 21.0012 -12.5996 -4.74744 62.5385 -48.4311 0.357094 10.0317 -0.0313413 44.9854 0.633647 5.56612 -1.23097 17.9502 16.0133 0.0 0.0 0.0 38.5528 -7.66217 5.80087 -33.7071 -0.115684 5.09777 -6.36367 25.0696 0.983753 -36.7172 0.0 0.0 -0.0 0.0 -0.0 8.30464 8.26803 4.88584 -19.401 -0.302285 -2.94769 30.322 -3.13061 3.92764 3.68973 -0.0 -0.0 0.0 0.0 0.0 
1021.21424971 713.435 -1761.42938957 -3.88898644483 49.6555379354 -1.93784400069 0.880715 0.0829826 1.06533 0.881346 0.0150289 1.06845 0.881774 -0.193741 1.05084 0.880234 -0.0253582 1.06825 -6.2112 2.89103 -1.63095 -6.19673 6.54529 -1.09227 -0.0 0.0 -0.0 7.69844 23.3357 13.4653 -45.0407 -41.303 53.7333 0.683153 -18.6966 0.112463 14.01 0.279261 -1.76342 1.51177 5.50713 12.3095 -0.0 0.0 -0.0 6.33188 21.0533 -11.2337 -7.85072 61.1381 -46.8491 0.407295 11.4072 -0.0406794 43.445 0.540475 5.39244 -1.0516 24.0109 17.2192 0.0 0.0 0.0 36.3973 -15.2028 7.14512 -24.5751 0.213349 3.73639 3.20645 27.8351 -0.49392 -34.0236 0.0 0.0 -0.0 0.0 -0.0 7.59398 7.94848 4.71734 -20.4144 -0.290482 -3.10274 32.4702 -2.85036 4.15203 3.36455 -0.0 -0.0 0.0 0.0 0.0 
